<svg xmlns="http://www.w3.org/2000/svg" xmlns:xlink="http://www.w3.org/1999/xlink" aria-hidden="true" role="img" class="iconify iconify--logos" width="35.93" height="32" preserveAspectRatio="xMidYMid meet" viewBox="0 0 256 228"><path fill="#00D8FF" d="M210.483 73.824a171.23 171.23 0 0 0-8.24-2.597c.465-1.9.893-3.777 1.273-5.621c6.238-30.281 2.16-54.676-11.769-63.675c-13.824-8.956-36.811 1.884-59.531 19.26c-2.125 1.72-4.193 3.556-6.162 5.525c-2.062-1.982-4.158-3.84-6.233-5.526C87.025 11.97 63.97 0 50.146 0c-13.823 0-36.81 11.97-59.531 29.243c-22.723 17.274-38.183 41.64-35.067 72.701a170.254 170.254 0 0 0 2.6 8.24c-3.356.42-6.78.888-10.02 1.404c-28.26 5.215-50.617 32.322-50.617 63.714c0 31.392 22.357 58.5 50.617 63.714c3.24.516 6.664.984 10.02 1.404a170.882 170.882 0 0 0-2.6 8.24c-3.116 31.061 12.36 55.588 35.067 72.701c22.723 17.275 45.68 29.243 59.503 29.243c13.823 0 36.811-11.968 59.534-29.243c22.723-17.275 38.183-41.642 35.066-72.701a170.254 170.254 0 0 0-2.599-8.24c3.356-.42 6.78-.888 10.02-1.404c28.26-5.215 50.617-32.322 50.617-63.714c0-31.392-22.357-58.5-50.617-63.714zM309.474 73.824c3.24.516 6.664.984 10.02 1.404c28.26 5.215 50.617 32.322 50.617 63.714c0 31.392-22.357 58.5-50.617 63.714c-3.24.516-6.664.984-10.02 1.404a170.882 170.882 0 0 1 2.599-8.24c3.116-31.061-12.36-55.588-35.067-72.701c-22.723-17.275-45.68-29.243-59.503-29.243c-13.823 0-36.811 11.968-59.534 29.243c-22.723 17.275-38.183 41.642-35.066 72.701a170.254 170.254 0 0 1 2.599 8.24c-3.356.42-6.78.888-10.02 1.404c-28.26 5.215-50.617 32.322-50.617 63.714c0 31.392 22.357 58.5 50.617 63.714c3.24.516 6.664.984 10.02 1.404a170.882 170.882 0 0 0-2.599-8.24c-3.116-31.061 12.36-55.588 35.067-72.701c22.723-17.275 45.68-29.243 59.503-29.243c13.823 0 36.811 11.968 59.534 29.243c22.723 17.275 38.183 41.642 35.066 72.701a170.254 170.254 0 0 0 2.599 8.24zM128 159.015c46.603 0 84.513-37.91 84.513-84.513S174.603 0 128 0S43.487 37.91 43.487 84.502c0 46.603 37.91 84.513 84.513 84.513z"></path></svg>
